<svg width="1873" height="1129" viewBox="0 0 1873 1129" fill="none" xmlns="http://www.w3.org/2000/svg">
<rect width="1873" height="1129" fill="black"/>
<path fill-rule="evenodd" clip-rule="evenodd" d="M971.515 542C1074.48 490.117 1137.5 394.978 1137.5 292.441V243.793C1137.5 222.65 1124.2 203.792 1104.28 196.695L953.284 142.884C942.429 139.015 930.571 139.015 919.716 142.884L768.716 196.695C748.799 203.792 735.5 222.65 735.5 243.793V292.441C735.5 397.198 800.762 490.768 901.025 541.701L919.292 376.249C904.201 369.725 893.646 354.761 893.646 337.344C893.646 313.929 912.722 294.947 936.254 294.947C959.785 294.947 978.861 313.929 978.861 337.344C978.861 354.762 968.307 369.726 953.215 376.25L971.515 542Z" fill="#33973F"/>
<path fill-rule="evenodd" clip-rule="evenodd" d="M967.204 502.957C1048.72 460.862 1098.5 384.875 1098.5 303.043V270.658C1098.5 249.516 1085.2 230.659 1065.29 223.561L953.288 183.639C942.43 179.769 930.57 179.769 919.713 183.639L807.712 223.561C787.798 230.659 774.5 249.516 774.5 270.659V303.043C774.5 386.592 825.984 461.315 905.335 502.658L919.292 376.249C904.201 369.725 893.646 354.761 893.646 337.344C893.646 313.928 912.722 294.946 936.254 294.946C959.785 294.946 978.861 313.928 978.861 337.344C978.861 354.761 968.307 369.725 953.215 376.249L967.204 502.957Z" fill="#5AB363"/>
<path fill-rule="evenodd" clip-rule="evenodd" d="M961.739 453.458C1018.79 422.788 1053.5 368.855 1053.5 310.852V297.326C1053.5 276.178 1040.19 257.316 1020.27 250.223L953.271 226.368C942.424 222.506 930.576 222.506 919.729 226.368L852.729 250.223C832.806 257.316 819.5 276.178 819.5 297.326V310.852C819.5 369.999 855.306 423.014 910.8 453.159L919.292 376.249C904.201 369.725 893.646 354.761 893.646 337.344C893.646 313.928 912.722 294.946 936.254 294.946C959.785 294.946 978.861 313.928 978.861 337.344C978.861 354.761 968.307 369.725 953.215 376.249L961.739 453.458Z" fill="#AAC968"/>
<path fill-rule="evenodd" clip-rule="evenodd" d="M957.415 414.295C993.013 393.648 1014.5 359.117 1014.5 322.081C1014.5 302.702 1002.29 285.425 984.018 278.96L953.18 268.048C942.388 264.229 930.612 264.229 919.82 268.048L888.982 278.96C870.712 285.425 858.5 302.702 858.5 322.081C858.5 359.753 880.557 393.671 915.126 413.984L919.292 376.25C904.201 369.726 893.646 354.762 893.646 337.345C893.646 313.929 912.722 294.947 936.254 294.947C959.785 294.947 978.861 313.929 978.861 337.345C978.861 354.762 968.307 369.726 953.215 376.25L957.415 414.295Z" fill="#DAD674"/>
<path d="M268.44 848.08H192.78L179.78 885H148.84L213.58 704.04H247.9L312.64 885H281.44L268.44 848.08ZM260.12 823.9L230.74 739.92L201.1 823.9H260.12ZM475.729 741.74V885H446.089V868.1C441.409 873.993 435.256 878.673 427.629 882.14C420.176 885.433 412.202 887.08 403.709 887.08C392.442 887.08 382.302 884.74 373.289 880.06C364.449 875.38 357.429 868.447 352.229 859.26C347.202 850.073 344.689 838.98 344.689 825.98V741.74H374.069V821.56C374.069 834.387 377.276 844.267 383.689 851.2C390.102 857.96 398.856 861.34 409.949 861.34C421.042 861.34 429.796 857.96 436.209 851.2C442.796 844.267 446.089 834.387 446.089 821.56V741.74H475.729ZM554.617 765.92V845.22C554.617 850.593 555.83 854.493 558.257 856.92C560.857 859.173 565.19 860.3 571.257 860.3H589.457V885H566.057C552.71 885 542.483 881.88 535.377 875.64C528.27 869.4 524.717 859.26 524.717 845.22V765.92H507.817V741.74H524.717V706.12H554.617V741.74H589.457V765.92H554.617ZM684.115 887.34C670.595 887.34 658.375 884.307 647.455 878.24C636.535 872 627.955 863.333 621.715 852.24C615.475 840.973 612.355 827.973 612.355 813.24C612.355 798.68 615.562 785.767 621.975 774.5C628.388 763.233 637.142 754.567 648.235 748.5C659.328 742.433 671.722 739.4 685.415 739.4C699.108 739.4 711.502 742.433 722.595 748.5C733.688 754.567 742.442 763.233 748.855 774.5C755.268 785.767 758.475 798.68 758.475 813.24C758.475 827.8 755.182 840.713 748.595 851.98C742.008 863.247 732.995 872 721.555 878.24C710.288 884.307 697.808 887.34 684.115 887.34ZM684.115 861.6C691.742 861.6 698.848 859.78 705.435 856.14C712.195 852.5 717.655 847.04 721.815 839.76C725.975 832.48 728.055 823.64 728.055 813.24C728.055 802.84 726.062 794.087 722.075 786.98C718.088 779.7 712.802 774.24 706.215 770.6C699.628 766.96 692.522 765.14 684.895 765.14C677.268 765.14 670.162 766.96 663.575 770.6C657.162 774.24 652.048 779.7 648.235 786.98C644.422 794.087 642.515 802.84 642.515 813.24C642.515 828.667 646.415 840.627 654.215 849.12C662.188 857.44 672.155 861.6 684.115 861.6ZM822.616 762.54C826.949 755.26 832.669 749.627 839.776 745.64C847.056 741.48 855.636 739.4 865.516 739.4V770.08H857.976C846.362 770.08 837.522 773.027 831.456 778.92C825.562 784.813 822.616 795.04 822.616 809.6V885H792.976V741.74H822.616V762.54ZM913.041 722.76C907.668 722.76 903.161 720.94 899.521 717.3C895.881 713.66 894.061 709.153 894.061 703.78C894.061 698.407 895.881 693.9 899.521 690.26C903.161 686.62 907.668 684.8 913.041 684.8C918.241 684.8 922.661 686.62 926.301 690.26C929.941 693.9 931.761 698.407 931.761 703.78C931.761 709.153 929.941 713.66 926.301 717.3C922.661 720.94 918.241 722.76 913.041 722.76ZM927.601 741.74V885H897.961V741.74H927.601ZM997.976 860.82H1062.98V885H963.656V860.82L1028.92 765.92H963.656V741.74H1062.98V765.92L997.976 860.82ZM1125.56 860.82H1190.56V885H1091.24V860.82L1156.5 765.92H1091.24V741.74H1190.56V765.92L1125.56 860.82ZM1217 812.72C1217 798.333 1219.95 785.593 1225.84 774.5C1231.91 763.407 1240.05 754.827 1250.28 748.76C1260.68 742.52 1272.12 739.4 1284.6 739.4C1295.87 739.4 1305.66 741.653 1313.98 746.16C1322.47 750.493 1329.23 755.953 1334.26 762.54V741.74H1364.16V885H1334.26V863.68C1329.23 870.44 1322.39 876.073 1313.72 880.58C1305.05 885.087 1295.17 887.34 1284.08 887.34C1271.77 887.34 1260.51 884.22 1250.28 877.98C1240.05 871.567 1231.91 862.727 1225.84 851.46C1219.95 840.02 1217 827.107 1217 812.72ZM1334.26 813.24C1334.26 803.36 1332.18 794.78 1328.02 787.5C1324.03 780.22 1318.75 774.673 1312.16 770.86C1305.57 767.047 1298.47 765.14 1290.84 765.14C1283.21 765.14 1276.11 767.047 1269.52 770.86C1262.93 774.5 1257.56 779.96 1253.4 787.24C1249.41 794.347 1247.42 802.84 1247.42 812.72C1247.42 822.6 1249.41 831.267 1253.4 838.72C1257.56 846.173 1262.93 851.893 1269.52 855.88C1276.28 859.693 1283.39 861.6 1290.84 861.6C1298.47 861.6 1305.57 859.693 1312.16 855.88C1318.75 852.067 1324.03 846.52 1328.02 839.24C1332.18 831.787 1334.26 823.12 1334.26 813.24ZM1581.71 739.4C1592.98 739.4 1603.03 741.74 1611.87 746.42C1620.89 751.1 1627.91 758.033 1632.93 767.22C1638.13 776.407 1640.73 787.5 1640.73 800.5V885H1611.35V804.92C1611.35 792.093 1608.15 782.3 1601.73 775.54C1595.32 768.607 1586.57 765.14 1575.47 765.14C1564.38 765.14 1555.54 768.607 1548.95 775.54C1542.54 782.3 1539.33 792.093 1539.33 804.92V885H1509.95V804.92C1509.95 792.093 1506.75 782.3 1500.33 775.54C1493.92 768.607 1485.17 765.14 1474.07 765.14C1462.98 765.14 1454.14 768.607 1447.55 775.54C1441.14 782.3 1437.93 792.093 1437.93 804.92V885H1408.29V741.74H1437.93V758.12C1442.79 752.227 1448.94 747.633 1456.39 744.34C1463.85 741.047 1471.82 739.4 1480.31 739.4C1491.75 739.4 1501.98 741.827 1510.99 746.68C1520.01 751.533 1526.94 758.553 1531.79 767.74C1536.13 759.073 1542.89 752.227 1552.07 747.2C1561.26 742 1571.14 739.4 1581.71 739.4ZM1698.73 722.76C1693.36 722.76 1688.85 720.94 1685.21 717.3C1681.57 713.66 1679.75 709.153 1679.75 703.78C1679.75 698.407 1681.57 693.9 1685.21 690.26C1688.85 686.62 1693.36 684.8 1698.73 684.8C1703.93 684.8 1708.35 686.62 1711.99 690.26C1715.63 693.9 1717.45 698.407 1717.45 703.78C1717.45 709.153 1715.63 713.66 1711.99 717.3C1708.35 720.94 1703.93 722.76 1698.73 722.76ZM1713.29 741.74V885H1683.65V741.74H1713.29Z" fill="white"/>
</svg>
