<svg width="2332" height="682" viewBox="0 0 2332 682" fill="none" xmlns="http://www.w3.org/2000/svg">
<rect width="2332" height="682" fill="#0C3B16"/>
<path fill-rule="evenodd" clip-rule="evenodd" d="M376.015 542C478.977 490.117 542 394.978 542 292.441V243.793C542 222.65 528.701 203.792 508.784 196.695L357.784 142.884C346.929 139.015 335.071 139.015 324.216 142.884L173.216 196.695C153.299 203.792 140 222.65 140 243.793V292.441C140 397.198 205.262 490.768 305.525 541.701L323.792 376.249C308.701 369.725 298.146 354.761 298.146 337.344C298.146 313.929 317.222 294.947 340.754 294.947C364.285 294.947 383.361 313.929 383.361 337.344C383.361 354.762 372.807 369.726 357.715 376.25L376.015 542Z" fill="#33973F"/>
<path fill-rule="evenodd" clip-rule="evenodd" d="M371.704 502.957C453.218 460.862 503 384.875 503 303.043V270.658C503 249.516 489.702 230.659 469.788 223.561L357.788 183.639C346.93 179.769 335.07 179.769 324.213 183.639L212.212 223.561C192.298 230.659 179 249.516 179 270.658V303.043C179 386.592 230.484 461.315 309.835 502.658L323.792 376.249C308.701 369.725 298.146 354.761 298.146 337.344C298.146 313.928 317.222 294.946 340.754 294.946C364.285 294.946 383.361 313.928 383.361 337.344C383.361 354.761 372.807 369.725 357.715 376.249L371.704 502.957Z" fill="#5AB363"/>
<path fill-rule="evenodd" clip-rule="evenodd" d="M366.239 453.458C423.291 422.788 458 368.855 458 310.852V297.326C458 276.178 444.694 257.316 424.771 250.223L357.771 226.368C346.924 222.506 335.076 222.506 324.229 226.368L257.229 250.223C237.306 257.316 224 276.178 224 297.326V310.852C224 369.999 259.806 423.014 315.3 453.159L323.792 376.249C308.701 369.725 298.146 354.761 298.146 337.344C298.146 313.928 317.222 294.946 340.754 294.946C364.285 294.946 383.361 313.928 383.361 337.344C383.361 354.761 372.807 369.725 357.715 376.249L366.239 453.458Z" fill="#AAC968"/>
<path fill-rule="evenodd" clip-rule="evenodd" d="M361.915 414.295C397.513 393.648 419 359.117 419 322.081C419 302.702 406.788 285.425 388.518 278.96L357.68 268.048C346.888 264.229 335.112 264.229 324.32 268.048L293.482 278.96C275.212 285.425 263 302.702 263 322.081C263 359.753 285.057 393.671 319.626 413.984L323.792 376.25C308.701 369.726 298.146 354.762 298.146 337.345C298.146 313.929 317.222 294.947 340.754 294.947C364.285 294.947 383.361 313.929 383.361 337.345C383.361 354.762 372.807 369.726 357.715 376.25L361.915 414.295Z" fill="#DAD674"/>
<path d="M727.44 395.08H651.78L638.78 432H607.84L672.58 251.04H706.9L771.64 432H740.44L727.44 395.08ZM719.12 370.9L689.74 286.92L660.1 370.9H719.12ZM934.729 288.74V432H905.089V415.1C900.409 420.993 894.256 425.673 886.629 429.14C879.176 432.433 871.202 434.08 862.709 434.08C851.442 434.08 841.302 431.74 832.289 427.06C823.449 422.38 816.429 415.447 811.229 406.26C806.202 397.073 803.689 385.98 803.689 372.98V288.74H833.069V368.56C833.069 381.387 836.276 391.267 842.689 398.2C849.102 404.96 857.856 408.34 868.949 408.34C880.042 408.34 888.796 404.96 895.209 398.2C901.796 391.267 905.089 381.387 905.089 368.56V288.74H934.729ZM1013.62 312.92V392.22C1013.62 397.593 1014.83 401.493 1017.26 403.92C1019.86 406.173 1024.19 407.3 1030.26 407.3H1048.46V432H1025.06C1011.71 432 1001.48 428.88 994.377 422.64C987.27 416.4 983.717 406.26 983.717 392.22V312.92H966.817V288.74H983.717V253.12H1013.62V288.74H1048.46V312.92H1013.62ZM1143.12 434.34C1129.6 434.34 1117.38 431.307 1106.46 425.24C1095.54 419 1086.96 410.333 1080.72 399.24C1074.48 387.973 1071.36 374.973 1071.36 360.24C1071.36 345.68 1074.56 332.767 1080.98 321.5C1087.39 310.233 1096.14 301.567 1107.24 295.5C1118.33 289.433 1130.72 286.4 1144.42 286.4C1158.11 286.4 1170.5 289.433 1181.6 295.5C1192.69 301.567 1201.44 310.233 1207.86 321.5C1214.27 332.767 1217.48 345.68 1217.48 360.24C1217.48 374.8 1214.18 387.713 1207.6 398.98C1201.01 410.247 1192 419 1180.56 425.24C1169.29 431.307 1156.81 434.34 1143.12 434.34ZM1143.12 408.6C1150.74 408.6 1157.85 406.78 1164.44 403.14C1171.2 399.5 1176.66 394.04 1180.82 386.76C1184.98 379.48 1187.06 370.64 1187.06 360.24C1187.06 349.84 1185.06 341.087 1181.08 333.98C1177.09 326.7 1171.8 321.24 1165.22 317.6C1158.63 313.96 1151.52 312.14 1143.9 312.14C1136.27 312.14 1129.16 313.96 1122.58 317.6C1116.16 321.24 1111.05 326.7 1107.24 333.98C1103.42 341.087 1101.52 349.84 1101.52 360.24C1101.52 375.667 1105.42 387.627 1113.22 396.12C1121.19 404.44 1131.16 408.6 1143.12 408.6ZM1281.62 309.54C1285.95 302.26 1291.67 296.627 1298.78 292.64C1306.06 288.48 1314.64 286.4 1324.52 286.4V317.08H1316.98C1305.36 317.08 1296.52 320.027 1290.46 325.92C1284.56 331.813 1281.62 342.04 1281.62 356.6V432H1251.98V288.74H1281.62V309.54ZM1372.04 269.76C1366.67 269.76 1362.16 267.94 1358.52 264.3C1354.88 260.66 1353.06 256.153 1353.06 250.78C1353.06 245.407 1354.88 240.9 1358.52 237.26C1362.16 233.62 1366.67 231.8 1372.04 231.8C1377.24 231.8 1381.66 233.62 1385.3 237.26C1388.94 240.9 1390.76 245.407 1390.76 250.78C1390.76 256.153 1388.94 260.66 1385.3 264.3C1381.66 267.94 1377.24 269.76 1372.04 269.76ZM1386.6 288.74V432H1356.96V288.74H1386.6ZM1456.98 407.82H1521.98V432H1422.66V407.82L1487.92 312.92H1422.66V288.74H1521.98V312.92L1456.98 407.82ZM1584.56 407.82H1649.56V432H1550.24V407.82L1615.5 312.92H1550.24V288.74H1649.56V312.92L1584.56 407.82ZM1676 359.72C1676 345.333 1678.95 332.593 1684.84 321.5C1690.91 310.407 1699.05 301.827 1709.28 295.76C1719.68 289.52 1731.12 286.4 1743.6 286.4C1754.87 286.4 1764.66 288.653 1772.98 293.16C1781.47 297.493 1788.23 302.953 1793.26 309.54V288.74H1823.16V432H1793.26V410.68C1788.23 417.44 1781.39 423.073 1772.72 427.58C1764.05 432.087 1754.17 434.34 1743.08 434.34C1730.77 434.34 1719.51 431.22 1709.28 424.98C1699.05 418.567 1690.91 409.727 1684.84 398.46C1678.95 387.02 1676 374.107 1676 359.72ZM1793.26 360.24C1793.26 350.36 1791.18 341.78 1787.02 334.5C1783.03 327.22 1777.75 321.673 1771.16 317.86C1764.57 314.047 1757.47 312.14 1749.84 312.14C1742.21 312.14 1735.11 314.047 1728.52 317.86C1721.93 321.5 1716.56 326.96 1712.4 334.24C1708.41 341.347 1706.42 349.84 1706.42 359.72C1706.42 369.6 1708.41 378.267 1712.4 385.72C1716.56 393.173 1721.93 398.893 1728.52 402.88C1735.28 406.693 1742.39 408.6 1749.84 408.6C1757.47 408.6 1764.57 406.693 1771.16 402.88C1777.75 399.067 1783.03 393.52 1787.02 386.24C1791.18 378.787 1793.26 370.12 1793.26 360.24ZM2040.71 286.4C2051.98 286.4 2062.03 288.74 2070.87 293.42C2079.89 298.1 2086.91 305.033 2091.93 314.22C2097.13 323.407 2099.73 334.5 2099.73 347.5V432H2070.35V351.92C2070.35 339.093 2067.15 329.3 2060.73 322.54C2054.32 315.607 2045.57 312.14 2034.47 312.14C2023.38 312.14 2014.54 315.607 2007.95 322.54C2001.54 329.3 1998.33 339.093 1998.33 351.92V432H1968.95V351.92C1968.95 339.093 1965.75 329.3 1959.33 322.54C1952.92 315.607 1944.17 312.14 1933.07 312.14C1921.98 312.14 1913.14 315.607 1906.55 322.54C1900.14 329.3 1896.93 339.093 1896.93 351.92V432H1867.29V288.74H1896.93V305.12C1901.79 299.227 1907.94 294.633 1915.39 291.34C1922.85 288.047 1930.82 286.4 1939.31 286.4C1950.75 286.4 1960.98 288.827 1969.99 293.68C1979.01 298.533 1985.94 305.553 1990.79 314.74C1995.13 306.073 2001.89 299.227 2011.07 294.2C2020.26 289 2030.14 286.4 2040.71 286.4ZM2157.73 269.76C2152.36 269.76 2147.85 267.94 2144.21 264.3C2140.57 260.66 2138.75 256.153 2138.75 250.78C2138.75 245.407 2140.57 240.9 2144.21 237.26C2147.85 233.62 2152.36 231.8 2157.73 231.8C2162.93 231.8 2167.35 233.62 2170.99 237.26C2174.63 240.9 2176.45 245.407 2176.45 250.78C2176.45 256.153 2174.63 260.66 2170.99 264.3C2167.35 267.94 2162.93 269.76 2157.73 269.76ZM2172.29 288.74V432H2142.65V288.74H2172.29Z" fill="white"/>
</svg>
