<svg width="682" height="650" viewBox="0 0 682 650" fill="none" xmlns="http://www.w3.org/2000/svg">
<rect width="682" height="650" fill="#0C3B16"/>
<path fill-rule="evenodd" clip-rule="evenodd" d="M376.015 526C478.977 474.117 542 378.978 542 276.441V227.793C542 206.65 528.701 187.792 508.784 180.695L357.784 126.884C346.929 123.015 335.071 123.015 324.216 126.884L173.216 180.695C153.299 187.792 140 206.65 140 227.793V276.441C140 381.198 205.262 474.768 305.525 525.701L323.792 360.249C308.701 353.725 298.146 338.761 298.146 321.344C298.146 297.929 317.222 278.947 340.754 278.947C364.285 278.947 383.361 297.929 383.361 321.344C383.361 338.762 372.807 353.726 357.715 360.25L376.015 526Z" fill="#33973F"/>
<path fill-rule="evenodd" clip-rule="evenodd" d="M371.704 486.957C453.218 444.862 503 368.875 503 287.043V254.658C503 233.516 489.702 214.659 469.788 207.561L357.788 167.639C346.93 163.769 335.07 163.769 324.213 167.639L212.212 207.561C192.298 214.659 179 233.516 179 254.658V287.043C179 370.592 230.484 445.315 309.835 486.658L323.792 360.249C308.701 353.725 298.146 338.761 298.146 321.344C298.146 297.928 317.222 278.946 340.754 278.946C364.285 278.946 383.361 297.928 383.361 321.344C383.361 338.761 372.807 353.725 357.715 360.249L371.704 486.957Z" fill="#5AB363"/>
<path fill-rule="evenodd" clip-rule="evenodd" d="M366.239 437.458C423.291 406.788 458 352.855 458 294.852V281.326C458 260.178 444.694 241.316 424.771 234.223L357.771 210.368C346.924 206.506 335.076 206.506 324.229 210.368L257.229 234.223C237.306 241.316 224 260.178 224 281.326V294.852C224 353.999 259.806 407.014 315.3 437.159L323.792 360.249C308.701 353.725 298.146 338.761 298.146 321.344C298.146 297.928 317.222 278.946 340.754 278.946C364.285 278.946 383.361 297.928 383.361 321.344C383.361 338.761 372.807 353.725 357.715 360.249L366.239 437.458Z" fill="#AAC968"/>
<path fill-rule="evenodd" clip-rule="evenodd" d="M361.915 398.295C397.513 377.648 419 343.117 419 306.081C419 286.702 406.788 269.425 388.518 262.96L357.68 252.048C346.888 248.229 335.112 248.229 324.32 252.048L293.482 262.96C275.212 269.425 263 286.702 263 306.081C263 343.753 285.057 377.671 319.626 397.984L323.792 360.25C308.701 353.726 298.146 338.762 298.146 321.345C298.146 297.929 317.222 278.947 340.754 278.947C364.285 278.947 383.361 297.929 383.361 321.345C383.361 338.762 372.807 353.726 357.715 360.25L361.915 398.295Z" fill="#DAD674"/>
</svg>
