<svg width="1593" height="850" viewBox="0 0 1593 850" fill="none" xmlns="http://www.w3.org/2000/svg">
<path fill-rule="evenodd" clip-rule="evenodd" d="M831.515 403C934.477 351.117 997.5 255.978 997.5 153.441V104.793C997.5 83.65 984.201 64.7922 964.284 57.6947L813.284 3.88372C802.429 0.0153247 790.571 0.0153208 779.716 3.88372L628.716 57.6947C608.799 64.7922 595.5 83.6501 595.5 104.793V153.441C595.5 258.198 660.762 351.768 761.025 402.701L779.292 237.249C764.201 230.725 753.646 215.761 753.646 198.344C753.646 174.929 772.722 155.947 796.254 155.947C819.785 155.947 838.861 174.929 838.861 198.344C838.861 215.762 828.307 230.726 813.215 237.25L831.515 403Z" fill="#33973F"/>
<path fill-rule="evenodd" clip-rule="evenodd" d="M827.204 363.957C908.718 321.862 958.5 245.875 958.5 164.043V131.658C958.5 110.516 945.202 91.6593 925.288 84.5608L813.288 44.6393C802.43 40.7693 790.57 40.7693 779.713 44.6393L667.712 84.5608C647.798 91.6593 634.5 110.516 634.5 131.658V164.043C634.5 247.592 685.984 322.315 765.335 363.658L779.292 237.249C764.201 230.725 753.646 215.761 753.646 198.344C753.646 174.928 772.722 155.946 796.254 155.946C819.785 155.946 838.861 174.928 838.861 198.344C838.861 215.761 828.307 230.725 813.215 237.249L827.204 363.957Z" fill="#5AB363"/>
<path fill-rule="evenodd" clip-rule="evenodd" d="M821.739 314.458C878.791 283.788 913.5 229.855 913.5 171.852V158.326C913.5 137.178 900.194 118.316 880.271 111.223L813.271 87.3682C802.424 83.5062 790.576 83.5062 779.729 87.3682L712.729 111.223C692.806 118.316 679.5 137.178 679.5 158.326V171.852C679.5 230.999 715.306 284.014 770.8 314.159L779.292 237.249C764.201 230.725 753.646 215.761 753.646 198.344C753.646 174.928 772.722 155.946 796.254 155.946C819.785 155.946 838.861 174.928 838.861 198.344C838.861 215.761 828.307 230.725 813.215 237.249L821.739 314.458Z" fill="#AAC968"/>
<path fill-rule="evenodd" clip-rule="evenodd" d="M817.415 275.295C853.013 254.647 874.5 220.116 874.5 183.081C874.5 163.701 862.288 146.425 844.018 139.96L813.18 129.048C802.388 125.229 790.612 125.229 779.82 129.048L748.982 139.96C730.712 146.425 718.5 163.701 718.5 183.081C718.5 220.753 740.557 254.671 775.126 274.984L779.292 237.25C764.201 230.726 753.646 215.761 753.646 198.344C753.646 174.929 772.722 155.947 796.254 155.947C819.785 155.947 838.861 174.929 838.861 198.344C838.861 215.762 828.307 230.726 813.215 237.25L817.415 275.295Z" fill="#DAD674"/>
<path d="M128.44 709.08H52.78L39.78 746H8.84L73.58 565.04H107.9L172.64 746H141.44L128.44 709.08ZM120.12 684.9L90.74 600.92L61.1 684.9H120.12ZM335.729 602.74V746H306.089V729.1C301.409 734.993 295.256 739.673 287.629 743.14C280.176 746.433 272.202 748.08 263.709 748.08C252.442 748.08 242.302 745.74 233.289 741.06C224.449 736.38 217.429 729.447 212.229 720.26C207.202 711.073 204.689 699.98 204.689 686.98V602.74H234.069V682.56C234.069 695.387 237.276 705.267 243.689 712.2C250.102 718.96 258.856 722.34 269.949 722.34C281.042 722.34 289.796 718.96 296.209 712.2C302.796 705.267 306.089 695.387 306.089 682.56V602.74H335.729ZM414.617 626.92V706.22C414.617 711.593 415.83 715.493 418.257 717.92C420.857 720.173 425.19 721.3 431.257 721.3H449.457V746H426.057C412.71 746 402.483 742.88 395.377 736.64C388.27 730.4 384.717 720.26 384.717 706.22V626.92H367.817V602.74H384.717V567.12H414.617V602.74H449.457V626.92H414.617ZM544.115 748.34C530.595 748.34 518.375 745.307 507.455 739.24C496.535 733 487.955 724.333 481.715 713.24C475.475 701.973 472.355 688.973 472.355 674.24C472.355 659.68 475.562 646.767 481.975 635.5C488.388 624.233 497.142 615.567 508.235 609.5C519.328 603.433 531.722 600.4 545.415 600.4C559.108 600.4 571.502 603.433 582.595 609.5C593.688 615.567 602.442 624.233 608.855 635.5C615.268 646.767 618.475 659.68 618.475 674.24C618.475 688.8 615.182 701.713 608.595 712.98C602.008 724.247 592.995 733 581.555 739.24C570.288 745.307 557.808 748.34 544.115 748.34ZM544.115 722.6C551.742 722.6 558.848 720.78 565.435 717.14C572.195 713.5 577.655 708.04 581.815 700.76C585.975 693.48 588.055 684.64 588.055 674.24C588.055 663.84 586.062 655.087 582.075 647.98C578.088 640.7 572.802 635.24 566.215 631.6C559.628 627.96 552.522 626.14 544.895 626.14C537.268 626.14 530.162 627.96 523.575 631.6C517.162 635.24 512.048 640.7 508.235 647.98C504.422 655.087 502.515 663.84 502.515 674.24C502.515 689.667 506.415 701.627 514.215 710.12C522.188 718.44 532.155 722.6 544.115 722.6ZM682.616 623.54C686.949 616.26 692.669 610.627 699.776 606.64C707.056 602.48 715.636 600.4 725.516 600.4V631.08H717.976C706.362 631.08 697.522 634.027 691.456 639.92C685.562 645.813 682.616 656.04 682.616 670.6V746H652.976V602.74H682.616V623.54ZM773.041 583.76C767.668 583.76 763.161 581.94 759.521 578.3C755.881 574.66 754.061 570.153 754.061 564.78C754.061 559.407 755.881 554.9 759.521 551.26C763.161 547.62 767.668 545.8 773.041 545.8C778.241 545.8 782.661 547.62 786.301 551.26C789.941 554.9 791.761 559.407 791.761 564.78C791.761 570.153 789.941 574.66 786.301 578.3C782.661 581.94 778.241 583.76 773.041 583.76ZM787.601 602.74V746H757.961V602.74H787.601ZM857.976 721.82H922.976V746H823.656V721.82L888.916 626.92H823.656V602.74H922.976V626.92L857.976 721.82ZM985.558 721.82H1050.56V746H951.238V721.82L1016.5 626.92H951.238V602.74H1050.56V626.92L985.558 721.82ZM1077 673.72C1077 659.333 1079.95 646.593 1085.84 635.5C1091.91 624.407 1100.05 615.827 1110.28 609.76C1120.68 603.52 1132.12 600.4 1144.6 600.4C1155.87 600.4 1165.66 602.653 1173.98 607.16C1182.47 611.493 1189.23 616.953 1194.26 623.54V602.74H1224.16V746H1194.26V724.68C1189.23 731.44 1182.39 737.073 1173.72 741.58C1165.05 746.087 1155.17 748.34 1144.08 748.34C1131.77 748.34 1120.51 745.22 1110.28 738.98C1100.05 732.567 1091.91 723.727 1085.84 712.46C1079.95 701.02 1077 688.107 1077 673.72ZM1194.26 674.24C1194.26 664.36 1192.18 655.78 1188.02 648.5C1184.03 641.22 1178.75 635.673 1172.16 631.86C1165.57 628.047 1158.47 626.14 1150.84 626.14C1143.21 626.14 1136.11 628.047 1129.52 631.86C1122.93 635.5 1117.56 640.96 1113.4 648.24C1109.41 655.347 1107.42 663.84 1107.42 673.72C1107.42 683.6 1109.41 692.267 1113.4 699.72C1117.56 707.173 1122.93 712.893 1129.52 716.88C1136.28 720.693 1143.39 722.6 1150.84 722.6C1158.47 722.6 1165.57 720.693 1172.16 716.88C1178.75 713.067 1184.03 707.52 1188.02 700.24C1192.18 692.787 1194.26 684.12 1194.26 674.24ZM1441.71 600.4C1452.98 600.4 1463.03 602.74 1471.87 607.42C1480.89 612.1 1487.91 619.033 1492.93 628.22C1498.13 637.407 1500.73 648.5 1500.73 661.5V746H1471.35V665.92C1471.35 653.093 1468.15 643.3 1461.73 636.54C1455.32 629.607 1446.57 626.14 1435.47 626.14C1424.38 626.14 1415.54 629.607 1408.95 636.54C1402.54 643.3 1399.33 653.093 1399.33 665.92V746H1369.95V665.92C1369.95 653.093 1366.75 643.3 1360.33 636.54C1353.92 629.607 1345.17 626.14 1334.07 626.14C1322.98 626.14 1314.14 629.607 1307.55 636.54C1301.14 643.3 1297.93 653.093 1297.93 665.92V746H1268.29V602.74H1297.93V619.12C1302.79 613.227 1308.94 608.633 1316.39 605.34C1323.85 602.047 1331.82 600.4 1340.31 600.4C1351.75 600.4 1361.98 602.827 1370.99 607.68C1380.01 612.533 1386.94 619.553 1391.79 628.74C1396.13 620.073 1402.89 613.227 1412.07 608.2C1421.26 603 1431.14 600.4 1441.71 600.4ZM1558.73 583.76C1553.36 583.76 1548.85 581.94 1545.21 578.3C1541.57 574.66 1539.75 570.153 1539.75 564.78C1539.75 559.407 1541.57 554.9 1545.21 551.26C1548.85 547.62 1553.36 545.8 1558.73 545.8C1563.93 545.8 1568.35 547.62 1571.99 551.26C1575.63 554.9 1577.45 559.407 1577.45 564.78C1577.45 570.153 1575.63 574.66 1571.99 578.3C1568.35 581.94 1563.93 583.76 1558.73 583.76ZM1573.29 602.74V746H1543.65V602.74H1573.29Z" fill="black"/>
</svg>
